<?xml version="1.0" encoding="UTF-8"?>
<svg xmlns="http://www.w3.org/2000/svg" viewBox="0 0 100 100" width="100" height="100">
  <defs>
    <linearGradient id="flask" x1="50" y1="24" x2="50" y2="82" gradientUnits="userSpaceOnUse">
      <stop offset="0" stop-color="#2FD8CC"/>
      <stop offset="1" stop-color="#00938D"/>
    </linearGradient>
  </defs>
  <rect width="100" height="100" rx="24" fill="#0A0E0D"/>
  <!-- Erlenmeyer flask (Labs) -->
  <rect x="38" y="17" width="24" height="7" rx="3.5" fill="url(#flask)"/>
  <path d="M43 25 L43 43 L25 76 Q22.5 81 28 81 L72 81 Q77.5 81 75 76 L57 43 L57 25 Z" fill="url(#flask)"/>
  <!-- AI spark glowing inside -->
  <path d="M50 47 L53.4 58 L62 61.5 L53.4 65 L50 76 L46.6 65 L38 61.5 L46.6 58 Z" fill="#031312"/>
  <path d="M50 51 L52.2 58.4 L59 61 L52.2 63.6 L50 71 L47.8 63.6 L41 61 L47.8 58.4 Z" fill="#E7FFFB"/>
</svg>
